<?xml version="1.0" encoding="utf-8"?>
<!-- Generator: Adobe Illustrator 16.0.0, SVG Export Plug-In . SVG Version: 6.00 Build 0)  -->
<!DOCTYPE svg PUBLIC "-//W3C//DTD SVG 1.1//EN" "http://www.w3.org/Graphics/SVG/1.1/DTD/svg11.dtd">
<svg version="1.1" id="圖層_1" xmlns="http://www.w3.org/2000/svg" xmlns:xlink="http://www.w3.org/1999/xlink" x="0px" y="0px"
	 width="127.999px" height="56px" viewBox="0 0 127.999 56" enable-background="new 0 0 127.999 56" xml:space="preserve">
<g>
	<path fill="#890C33" d="M47.753,0H9.371C4.747,0,1,3.809,1,8.504v38.992C1,52.193,4.747,56,9.371,56h38.383
		c4.623,0,8.371-3.807,8.371-8.504V34.485L45.837,55.732h-7.766l-16.984-34.93h7.041l8.636,18.918
		c1.889,4.099,3.122,7.435,5.153,11.532h0.291c1.96-4.098,3.266-7.434,5.153-11.532l8.564-18.918h0.198V8.504
		C56.125,3.809,52.376,0,47.753,0z"/>
	<path fill="#890C33" d="M67.749,43.445l-2.187-0.951c-1.185-0.508-2.516-1.078-2.516-2.578c0-1.396,1.123-2.283,2.851-2.283
		c1.413,0,2.537,0.571,3.473,1.459l1.02-1.247c-1.081-1.142-2.684-1.924-4.492-1.924c-2.769,0-4.806,1.733-4.806,4.121
		c0,2.262,1.684,3.36,3.098,3.974l2.207,0.972c1.435,0.655,2.537,1.163,2.537,2.748c0,1.521-1.206,2.535-3.204,2.535
		c-1.58,0-3.121-0.761-4.224-1.923l-1.143,1.331c1.331,1.416,3.183,2.304,5.346,2.304c3.183,0,5.18-1.944,5.18-4.396
		C70.888,45.283,69.515,44.227,67.749,43.445z"/>
	<polygon fill="#890C33" points="82.934,42.705 75.82,42.705 75.82,36.217 73.885,36.217 73.885,51.708 75.82,51.708 75.82,44.396 
		82.934,44.396 82.934,51.708 84.849,51.708 84.849,36.217 82.934,36.217 	"/>
	<polygon fill="#890C33" points="90.966,44.396 96.75,44.396 96.75,42.727 90.966,42.727 90.966,37.865 97.831,37.865 
		97.831,36.217 89.032,36.217 89.032,51.708 98.06,51.708 98.06,50.038 90.966,50.038 	"/>
	<path fill="#890C33" d="M110.292,44.269c0,1.606,0.146,3.34,0.25,4.903h-0.104l-1.623-3.191l-5.555-9.764h-1.997v15.491h1.83
		v-8.137c0-1.627-0.146-3.275-0.229-4.839h0.083l1.645,3.19l5.555,9.785h1.975V36.217h-1.83V44.269z"/>
	<path fill="#890C33" d="M122.006,43.678v1.627h3.225v4.058c-0.604,0.57-1.664,0.908-2.767,0.908c-3.267,0-5.076-2.451-5.076-6.36
		c0-3.868,1.998-6.277,5.056-6.277c1.56,0,2.537,0.655,3.308,1.479l1.04-1.268c-0.873-0.951-2.268-1.924-4.391-1.924
		c-4.035,0-6.989,3.044-6.989,8.053c0,5.029,2.851,8.009,6.865,8.009c2.06,0,3.745-0.761,4.723-1.796v-6.509H122.006z"/>
</g>
</svg>
